<svg height="32" viewBox="0 0 32 32" width="32" xmlns="http://www.w3.org/2000/svg"><path d="m22.667958 17.4957586h2.0463774c.1389837 0 .2525019.1136976.2525019.2525019v6.6375006c0 .138625-.1135182.252502-.2525019.252502h-17.42819149c-.13898365 0-.25268125-.113877-.25268125-.252502v-6.6375006c0-.1388043.1136976-.2525019.25268125-.2525019h1.89484037c.13880432 0 .25250191.1136976.25250191.2525019v4.4456836c0 .1388043.1136976.2523226.25250192.2523226h12.47714539c.138625 0 .252502-.1135183.252502-.2523226v-4.4456836c0-.1388043.1136976-.2525019.2523225-.2525019zm-4.8844056-3.2958673v.0001793h2.3103566c.2223739 0 .3014601.1502817.1761058.3337401l-4.041824 5.9239317c-.1255336.1834584-.3303328.1834584-.4556871 0l-4.0420033-5.924111c-.1255336-.1834585-.0460887-.3337401.1761058-.3337401h2.3101773c.2223738 0 .4042183-.1818445.4042183-.404039v-6.39181337c0-.22219451.1818444-.40403893.4042182-.40403893h1.9497165c.2223739 0 .4043976.18184442.4043976.40403893v6.39181337c0 .2221945.1818444.404039.4042183.404039z" fill="#939393" fill-rule="evenodd"/></svg>