<svg height="32" viewBox="0 0 32 32" width="32" xmlns="http://www.w3.org/2000/svg"><path d="m23.242 14.316c.421 0 .758.337.758.741v1.853c0 .421-.337.757-.758.757h-.842c-.32 0-.589.203-.708.505-.033.102-.067.202-.118.304-.134.303-.066.64.153.858l.572.557c.304.303.304.774 0 1.077l-1.314 1.315c-.303.302-.774.302-1.078 0l-.572-.574c-.219-.218-.556-.286-.843-.151-.1.067-.219.101-.336.151-.303.119-.489.405-.489.707v.827c0 .421-.337.757-.758.757h-1.852c-.421 0-.758-.336-.758-.757v-.776c0-.319-.202-.589-.488-.707-.102-.051-.219-.101-.337-.151-.287-.135-.623-.068-.842.151l-.573.572c-.303.304-.775.304-1.078 0l-1.314-1.313c-.303-.303-.303-.774 0-1.078l.59-.589c.219-.236.286-.573.151-.859-.033-.101-.084-.203-.117-.303-.102-.304-.388-.506-.708-.506h-.825c-.421 0-.758-.337-.758-.74v-1.854c0-.421.337-.758.758-.758h.842c.32 0 .589-.202.708-.504.033-.102.067-.186.118-.287.134-.287.066-.64-.153-.859l-.606-.606c-.303-.303-.303-.775 0-1.078l1.314-1.314c.303-.303.775-.303 1.078 0l.606.606c.236.219.573.287.859.152.101-.05.185-.084.287-.117.302-.102.504-.388.504-.708v-.859c0-.421.337-.758.759-.758h1.852c.422 0 .759.337.759.758v.842c0 .32.202.59.504.707.102.034.186.085.287.118.286.135.64.068.859-.151l.606-.607c.303-.302.775-.302 1.078 0l1.314 1.314c.303.304.303.775 0 1.078l-.606.606c-.237.219-.287.573-.153.859.034.085.085.185.118.287.119.303.388.505.708.505zm-7.242 4.632c1.634 0 2.947-1.314 2.947-2.948 0-1.633-1.313-2.947-2.947-2.947s-2.947 1.314-2.947 2.947c0 1.634 1.313 2.948 2.947 2.948z" fill="#939393" fill-rule="evenodd"/></svg>