<svg height="32" viewBox="0 0 32 32" width="32" xmlns="http://www.w3.org/2000/svg"><path d="m15.7953529 9.04082456c.1257064.06406941.2056128.19737514.2046383.34308139v14.23271095c0 .1457062-.0799064.279012-.2046383.3430814-.0526213.0279012-.1091404.0403017-.1656596.0403017-.0779574 0-.1568893-.0258344-.2221787-.0775033l-5.54374876-4.3288192h-3.11927225c-.41025105 0-.74449359-.3451481-.74449359-.7698664v-4.646066c0-.4247183.33424254-.7698664.74449359-.7698664h3.11927225l5.54374876-4.32985255c.1110894-.0878371.2621319-.10333777.3878383-.03720159zm7.2046471 7.45867724c0 2.2629767-1.0844571 4.2688649-2.747102 5.5004982l-1.252898-1.3691458c1.3172463-.8788839 2.1925716-2.3994927 2.1925716-4.1313524 0-1.7308633-.8753253-3.2514721-2.1925716-4.130356l1.252898-1.3691458c1.6626449 1.2316333 2.747102 3.2375215 2.747102 5.4995018zm-3-.0000037c0 1.4897461-.7231986 2.7907643-1.7970123 3.5005019l-1.2029877-1.4254984c.7688928-.3011616 1.3224956-1.1153018 1.3224956-2.0750035 0-.957694-.5544815-1.7728381-1.3224956-2.0729959l1.2029877-1.4265022c1.0738137.7097376 1.7970123 2.0107558 1.7970123 3.4994981zm2.2948011-7.4994981c2.2528555 1.7418839 3.7051989 4.455703 3.7051989 7.4995 0 3.044797-1.4523434 5.7586161-3.7042143 7.5005l-1.2957857-1.3639091c1.8914927-1.393907 3.120323-3.6247583 3.120323-6.1365909 0-2.5098326-1.2288303-4.7416839-3.120323-6.134591z" fill="#939393" fill-rule="evenodd"/></svg>